<?xml version="1.0" encoding="iso-8859-1"?>
<!-- Generator: Adobe Illustrator 19.0.0, SVG Export Plug-In . SVG Version: 6.00 Build 0)  -->
<svg version="1.1" id="Capa_1" xmlns="http://www.w3.org/2000/svg" xmlns:xlink="http://www.w3.org/1999/xlink" x="0px" y="0px"
	 viewBox="0 0 512.002 512.002" style="enable-background:new 0 0 512.002 512.002;" xml:space="preserve">
<path style="fill:#AFAFAF;" d="M467.152,312.874l-49.9-43.253c-4.266-3.699-10.924-0.89-11.27,4.739l-2.797,30.77l-0.398,4.234
	l26.603,23.061l5.028-1.022l29.741-6.716C469.626,323.473,471.383,316.549,467.152,312.874z"/>
<path style="fill:#00C37A;" d="M264.606,16.695v13.87c0,25.707-20.841,46.547-46.547,46.547h-57.876V54.042
	c0-25.707,20.841-46.547,46.547-46.547h48.686C260.491,7.494,264.606,11.609,264.606,16.695z"/>
<path style="fill:#02AD67;" d="M255.417,7.494h-10.796v8.083c0,25.707-20.841,46.547-46.547,46.547h-37.891v14.989h57.876
	c25.707,0,46.547-20.84,46.547-46.547v-13.87C264.606,11.609,260.491,7.494,255.417,7.494z"/>
<path style="fill:#00C37A;" d="M160.184,77.646v20.459c0,3.202-2.601,5.791-5.803,5.791h-42.64
	c-17.35,0-31.417-14.067-31.417-31.405V52.031c0-3.202,2.601-5.803,5.803-5.803h42.652
	C146.116,46.229,160.184,60.295,160.184,77.646z"/>
<path style="fill:#02AD67;" d="M138.213,89.616c-17.35,0-31.417-14.067-31.417-31.405V46.228H86.125
	c-3.202,0-5.803,2.601-5.803,5.803V72.49c0,17.339,14.067,31.405,31.417,31.405h42.64c3.202,0,5.803-2.589,5.803-5.791v-8.489
	H138.213z"/>
<path style="fill:#00C37A;" d="M159.709,166.163v12.403c0,1.988-1.607,3.606-3.595,3.606H133.62
	c-12.207,0-22.112-9.906-22.112-22.112v-12.415c0-1.988,1.618-3.595,3.606-3.595h22.482
	C149.815,144.051,159.709,153.945,159.709,166.163z"/>
<path style="fill:#02AD67;" d="M150.701,169.182c-12.206,0-22.112-9.905-22.112-22.112v-3.019h-13.474
	c-1.988,0-3.606,1.607-3.606,3.595v12.415c0,12.207,9.906,22.112,22.112,22.112h22.494c1.988,0,3.595-1.619,3.595-3.606v-9.384
	h-9.009V169.182z"/>
<path style="fill:#00C37A;" d="M201.136,131.14v6.531c0,12.218-9.906,22.112-22.112,22.112h-15.072
	c-1.988,0-3.595-1.607-3.595-3.606v-6.531c0-12.206,9.894-22.112,22.112-22.112h15.061
	C199.519,127.534,201.136,129.14,201.136,131.14z"/>
<path style="fill:#02AD67;" d="M197.53,127.534h-6.495c-1.098,11.189-10.535,19.926-22.004,19.926h-8.566
	c-0.071,0.719-0.109,1.449-0.109,2.186v6.531c0,1.999,1.607,3.606,3.595,3.606h15.072c12.207,0,22.112-9.894,22.112-22.112v-6.531
	C201.136,129.14,199.519,127.534,197.53,127.534z"/>
<path style="fill:#14B9C1;" d="M347.102,455.748l86.765-123.561c0.312-0.444,0.233-1.053-0.183-1.403l-29.815-25.082
	c-0.394-0.331-0.969-0.327-1.358,0.009l-69.766,60.261L347.102,455.748z"/>
<path style="fill:#2CD4E5;" d="M354.511,481.217c0.901,12.541-8.381,23.268-20.159,23.268H206.453l-6.496-194.328h111.937
	c15.257,0,27.927,11.79,29.036,27.013L354.511,481.217z"/>
<path style="fill:#11C5CE;" d="M271.758,497.183l21.303-132.438c10.54-6.93,17.518-18.854,17.518-32.383v-8.311
	c0-4.895-0.921-9.578-2.585-13.894H199.957l6.496,194.329h63.397C270.71,502.158,271.36,499.719,271.758,497.183z"/>
<path style="fill:#915922;" d="M239.014,301.385v5.12l-0.231,17.881H76.231v-13.789v-6.137c0-11.871,9.629-21.5,21.5-21.5
	c1.41,0,2.797,0.15,4.127,0.405c0.335-11.582,9.802-20.875,21.465-20.875c4.6,0,8.854,1.457,12.357,3.907
	c0.625-11.304,9.963-20.298,21.431-20.298c10.889,0,19.858,8.103,21.28,18.587c2.855-1.399,6.045-2.196,9.432-2.196
	c11.062,0,20.159,8.346,21.361,19.072c2.566-1.075,5.375-1.676,8.334-1.676C229.387,279.885,239.014,289.513,239.014,301.385z"/>
<path style="fill:#824B1A;" d="M104.461,319.402c0-11.871,9.629-21.5,21.5-21.5c0.014,0,0.028,0,0.042,0
	c2.172,0.005,4.104-1.419,4.563-3.542c2.093-9.677,10.683-16.929,20.986-16.929c2.647,0,5.179,0.483,7.52,1.359
	c2.376,0.889,5.054-0.416,5.831-2.831c2.021-6.286,6.86-11.305,13.03-13.581c-2.331-9.34-10.75-16.281-20.823-16.281
	c-11.466,0-20.806,8.993-21.431,20.297c-3.502-2.45-7.756-3.907-12.357-3.907c-11.663,0-21.13,9.293-21.465,20.875
	c-1.329-0.254-2.716-0.405-4.127-0.405c-11.871,0-21.5,9.629-21.5,21.5v6.138v13.789h28.229v-4.984H104.461z"/>
<path style="fill:#FF7400;" d="M271.776,339.773l-24.681,153.444c-1.029,6.542-6.577,11.2-13.466,11.2H86.738
	c-6.889,0-12.438-4.658-13.466-11.2L48.513,339.773H271.776z"/>
<g>
	<path style="fill:#FF5500;" d="M271.776,339.773H127.384H48.513l24.759,153.444c1.029,6.542,6.577,11.2,13.466,11.2h78.871
		c-6.889,0-12.438-4.658-13.466-11.2l-14.869-92.149c-1.545-9.574,5.848-18.254,15.545-18.254h112.034L271.776,339.773z"/>
	<path style="fill:#FF5500;" d="M285.597,324.052v8.311c0,7.594-6.161,13.755-13.755,13.755H48.525
		c-7.594,0-13.755-6.161-13.755-13.755v-8.311c0-7.606,6.161-13.766,13.755-13.766h223.317
		C279.437,310.285,285.597,316.445,285.597,324.052z"/>
</g>
<path style="fill:#FF3C00;" d="M271.842,328.201H48.525c-5.903,0-10.926-3.73-12.876-8.955c-0.559,1.498-0.878,3.113-0.878,4.806
	v8.311c0,7.594,6.161,13.755,13.755,13.755h223.317c7.594,0,13.755-6.161,13.755-13.755v-8.311c0-1.694-0.32-3.307-0.878-4.806
	C282.768,324.471,277.746,328.201,271.842,328.201z"/>
<path style="fill:#2CD4E5;" d="M477.232,383.58c0,10.403-8.438,18.83-18.83,18.83c-10.391,0-18.83-8.427-18.83-18.83
	c0-8.28,11.953-19.295,16.812-23.431c1.165-0.992,2.87-0.992,4.036,0C465.28,364.285,477.232,375.3,477.232,383.58z"/>
<path style="fill:#11C197;" d="M458.403,387.079c0-5.807,5.879-12.956,11.067-18.138c-3.301-3.731-6.881-6.948-9.048-8.793
	c-1.165-0.992-2.87-0.992-4.035,0c-4.859,4.136-16.812,15.152-16.812,23.431c0,10.403,8.439,18.83,18.83,18.83
	c2.271,0,4.44-0.423,6.457-1.161C460.911,397.797,458.403,392.737,458.403,387.079z"/>
<path style="fill:#2CD4E5;" d="M431.24,464.734c0,7.339-5.952,13.293-13.293,13.293c-7.339,0-13.293-5.952-13.293-13.293
	c0-5.526,7.534-12.781,11.258-16.03c1.165-1.016,2.904-1.016,4.069,0C423.705,451.953,431.24,459.208,431.24,464.734z"/>
<path style="fill:#11C197;" d="M417.947,461.853c0-3.167,2.476-6.9,5.29-10.123c-1.202-1.192-2.344-2.23-3.256-3.026
	c-1.165-1.016-2.904-1.016-4.069,0c-3.724,3.249-11.258,10.504-11.258,16.03c0,7.34,5.953,13.293,13.293,13.293
	c3.503,0,6.682-1.367,9.057-3.583C421.742,472.674,417.947,467.71,417.947,461.853z"/>
<path d="M361.973,480.514l-2.736-29.015l79.36-113.489l27.187-6.006c5.308-1.179,9.435-5.185,10.772-10.456
	c1.338-5.272-0.382-10.763-4.495-14.337l-49.899-43.252c-4.141-3.59-9.853-4.501-14.909-2.379
	c-5.061,2.124-8.415,6.846-8.752,12.329l-1.713,28.315l-47.845,40.13l-0.548-5.811c-1.429-19.005-17.447-33.879-36.512-33.879
	l-65.376,0.074v-1.762c0-15.9-13.007-28.835-28.994-28.835c-1.024,0-2.042,0.053-3.053,0.158
	c-4.463-10.34-14.782-17.426-26.643-17.426c-1.512,0-3.006,0.115-4.477,0.344c-3.157-6.674-8.805-11.914-15.666-14.611v-73.329
	h11.346c16.325,0,29.606-13.282,29.606-29.606v-6.531c0-6.12-4.98-11.101-11.101-11.101h-15.061c-5.384,0-10.436,1.445-14.791,3.967
	V84.607h50.381c29.799,0,54.043-24.243,54.043-54.042v-13.87C272.099,7.489,264.615,0,255.416,0h-48.687
	c-27.517,0-50.298,20.673-53.624,47.305c-6.667-5.36-15.13-8.57-24.329-8.57H86.126c-7.331,0-13.297,5.964-13.297,13.297v20.459
	c0,21.45,17.456,38.9,38.911,38.9h40.949v29.311c-4.422-2.631-9.584-4.143-15.092-4.143h-22.482c-6.12,0-11.101,4.975-11.101,11.09
	v12.415c0,16.325,13.282,29.606,29.606,29.606h19.068v49.272c-9.871,1.509-18.148,7.99-22.081,16.856
	c-2.362-0.61-4.805-0.921-7.286-0.921c-13.122,0-24.128,8.504-27.725,20.397c-14.586,1.06-26.209,12.898-26.834,27.52H48.525
	c-11.717,0-21.25,9.538-21.25,21.261v8.311c0,9.993,6.934,18.397,16.244,20.653l22.35,141.364
	c1.597,10.158,10.374,17.531,20.869,17.531l247.614,0.069c0.334,0.045-0.346,0,0,0l0,0c7.522,0,14.559-3.109,19.814-8.754
	c5.57-5.984,8.421-14.202,7.82-22.546C361.983,480.625,361.978,480.569,361.973,480.514z M167.851,149.646
	c0-8.06,6.558-14.618,14.618-14.618h11.173v2.643c0,8.06-6.558,14.618-14.618,14.618h-11.173V149.646z M152.215,174.679h-18.594
	c-8.061,0-14.618-6.558-14.618-14.618v-8.514h18.594c8.06,0,14.618,6.558,14.618,14.618V174.679z M413.38,276.182l47.851,41.477
	l-25.096,5.545l-24.352-20.607L413.38,276.182z M404.054,315.692l20.015,16.936l-67.006,95.823l-6.409-67.97L404.054,315.692z
	 M311.894,317.652c11.27,0,20.741,8.813,21.561,20.064c0.004,0.053,0.009,0.106,0.014,0.159l-0.014-0.159
	c0.003,0.034,0.01,0.125,0.014,0.159l8.243,87.42h-76.378l11.329-72.235c9.403-2.189,16.429-10.638,16.429-20.697v-8.311
	c0-2.22-0.343-4.363-0.976-6.377L311.894,317.652z M167.678,54.042c0-21.535,17.52-39.053,39.053-39.053h48.687
	c0.935,0,1.695,0.765,1.695,1.707v13.87c0,21.534-17.52,39.053-39.054,39.053h-50.381L167.678,54.042L167.678,54.042z
	 M111.74,96.401c-13.191,0-23.923-10.727-23.923-23.912V53.723h40.961c13.185,0,23.912,10.732,23.912,23.923v18.757L111.74,96.401
	L111.74,96.401z M97.73,290.181c0.866,0,1.785,0.091,2.73,0.271c2.156,0.407,4.383-0.148,6.092-1.522
	c1.71-1.375,2.732-3.429,2.796-5.623c0.22-7.539,6.358-13.446,13.973-13.446c2.895,0,5.69,0.878,8.082,2.54
	c2.23,1.548,5.123,1.771,7.562,0.58c2.439-1.19,4.044-3.608,4.195-6.318c0.408-7.328,6.534-13.07,13.947-13.07
	c6.967,0,12.923,5.146,13.854,11.97c0.326,2.38,1.772,4.461,3.891,5.594c2.118,1.133,4.652,1.183,6.812,0.132
	c1.946-0.946,4.016-1.426,6.154-1.426c7.142,0,13.124,5.278,13.914,12.278c0.265,2.341,1.615,4.422,3.644,5.618
	c2.029,1.195,4.504,1.366,6.68,0.462c1.738-0.722,3.573-1.089,5.456-1.089c7.722,0,14.005,6.211,14.005,13.846v1.779l0,0
	l-147.74,0.036C84.416,295.733,90.43,290.181,97.73,290.181z M80.674,492.045L58.788,353.611h108.414
	c4.139,0,7.494-3.355,7.494-7.494c0-4.139-3.355-7.494-7.494-7.494H50.041c-0.026,0-0.053,0-0.08,0h-1.437
	c-3.452,0-6.261-2.809-6.261-6.26v-8.311c0-3.458,2.809-6.272,6.261-6.272h223.317c3.452,0,6.261,2.814,6.261,6.272v8.311
	c0,3.452-2.809,6.26-6.261,6.26h-1.568c-0.093-0.001-0.185-0.002-0.277,0h-60.559c-4.139,0-7.494,3.355-7.494,7.494
	c0,4.139,3.355,7.494,7.494,7.494h51.966l-21.713,138.44c-0.013,0.077,0.011-0.077,0,0l0,0c-0.458,2.913-2.894,4.87-6.062,4.87
	H86.738C83.57,496.922,81.133,494.965,80.674,492.045z M343.194,493.014c-2.387,2.565-5.527,3.977-8.842,3.977h-80.44
	c0.248-0.847,0.445-1.72,0.585-2.614l8.485-54.094h80.142l0.928,9.85c0.003,0.037,0.007,0.073,0.01,0.109l2.979,31.587
	C347.322,486.011,345.923,490.083,343.194,493.014z"/>
<path d="M463.015,352.579c-2.711-2.116-6.515-2.116-9.225,0c-5.093,3.977-21.711,17.966-21.711,31.001
	c0,14.515,11.808,26.324,26.324,26.324c14.516,0,26.324-11.809,26.324-26.324C484.727,370.545,468.108,356.556,463.015,352.579z
	 M458.403,394.914c-6.25,0-11.335-5.085-11.335-11.335c0-3.055,5.352-9.686,11.335-15.236c5.984,5.553,11.335,12.183,11.335,15.236
	C469.738,389.829,464.653,394.914,458.403,394.914z"/>
<path d="M422.562,441.099c-2.713-2.12-6.518-2.12-9.231,0c-3.794,2.966-16.172,13.435-16.172,23.635
	c0,11.462,9.325,20.787,20.787,20.787s20.787-9.325,20.787-20.787C438.733,454.534,426.356,444.065,422.562,441.099z
	 M417.947,470.533c-3.174,0-5.761-2.563-5.799-5.728c0.246-1.503,2.679-4.67,5.797-7.783c3.1,3.103,5.557,6.298,5.801,7.783
	C423.706,467.97,421.12,470.533,417.947,470.533z"/>
<g>
</g>
<g>
</g>
<g>
</g>
<g>
</g>
<g>
</g>
<g>
</g>
<g>
</g>
<g>
</g>
<g>
</g>
<g>
</g>
<g>
</g>
<g>
</g>
<g>
</g>
<g>
</g>
<g>
</g>
</svg>
