<svg id="Capa_1" data-name="Capa 1" xmlns="http://www.w3.org/2000/svg" viewBox="0 0 457.45 512"><defs><style>.cls-1{fill:#609e3b;}</style></defs><path class="cls-1" d="M362,480.51l-2.73-29L438.6,338l27.18-6a14.31,14.31,0,0,0,6.28-24.79L422.16,264a14.31,14.31,0,0,0-23.66,10l-1.71,28.31-47.85,40.13-.55-5.81a36.75,36.75,0,0,0-36.51-33.88l-65.37.08V301a29,29,0,0,0-29-28.84,28.19,28.19,0,0,0-3,.16,29,29,0,0,0-31.12-17.08,29.14,29.14,0,0,0-15.67-14.61V167.28H179a29.65,29.65,0,0,0,29.61-29.61v-6.53A11.12,11.12,0,0,0,197.52,120H182.46a29.37,29.37,0,0,0-14.79,4V84.61h50.38a54.11,54.11,0,0,0,54.05-54V16.7A16.71,16.71,0,0,0,255.42,0H206.73a54.11,54.11,0,0,0-53.62,47.31,38.65,38.65,0,0,0-24.33-8.57H86.13A13.3,13.3,0,0,0,72.83,52V72.49a39,39,0,0,0,38.91,38.9h41V140.7a29.42,29.42,0,0,0-15.09-4.14H115.12A11.11,11.11,0,0,0,104,147.65v12.41a29.65,29.65,0,0,0,29.61,29.61h19.07v49.27a29,29,0,0,0-22.08,16.86,29.13,29.13,0,0,0-7.29-.92A28.78,28.78,0,0,0,95.6,275.27a29,29,0,0,0-26.84,27.52H48.53a21.28,21.28,0,0,0-21.25,21.26v8.32A21.28,21.28,0,0,0,43.52,353L65.87,494.38a20.87,20.87,0,0,0,20.87,17.53l247.61.07c.34,0-.34,0,0,0h0a26.9,26.9,0,0,0,19.82-8.75A30,30,0,0,0,362,480.68C362,480.63,362,480.57,362,480.51ZM167.85,149.65A14.64,14.64,0,0,1,182.47,135h11.17v2.64A14.64,14.64,0,0,1,179,152.29H167.85Zm-15.64,25H133.62A14.64,14.64,0,0,1,119,160.06v-8.51h18.6a14.62,14.62,0,0,1,14.61,14.61Zm261.17,101.5,47.85,41.48-25.09,5.54-24.36-20.6Zm-9.33,39.51,20,16.94-67,95.82-6.41-68Zm-92.16,2a21.72,21.72,0,0,1,21.57,20.07.92.92,0,0,0,0,.16v-.16s0,.12,0,.16l8.24,87.41H265.33l11.33-72.23a21.28,21.28,0,0,0,16.43-20.7v-8.31a21.38,21.38,0,0,0-1-6.38ZM167.68,54a39.1,39.1,0,0,1,39-39h48.69a1.7,1.7,0,0,1,1.69,1.71V30.57a39.1,39.1,0,0,1-39.05,39.05H167.68V54ZM111.74,96.4A23.94,23.94,0,0,1,87.82,72.49V53.72h41a24,24,0,0,1,23.91,23.93V96.4Zm-14,193.78a14.59,14.59,0,0,1,2.73.27,7.5,7.5,0,0,0,8.89-7.14,13.85,13.85,0,0,1,14-13.45,14.1,14.1,0,0,1,8.08,2.54,7.5,7.5,0,0,0,11.76-5.74,14,14,0,0,1,27.8-1.1,7.49,7.49,0,0,0,10.7,5.73,14,14,0,0,1,20.07,10.85,7.5,7.5,0,0,0,10.33,6.08,14.14,14.14,0,0,1,5.45-1.09,14,14,0,0,1,14,13.85v1.78h0l-147.74,0A14,14,0,0,1,97.73,290.18ZM80.67,492.05,58.79,353.61H167.2a7.5,7.5,0,1,0,0-15H48.52a6.27,6.27,0,0,1-6.26-6.26v-8.31a6.27,6.27,0,0,1,6.26-6.27H271.84a6.27,6.27,0,0,1,6.26,6.27v8.31a6.26,6.26,0,0,1-6.26,6.26h-62.4a7.5,7.5,0,1,0,0,15h52L239.69,492.05h0a5.82,5.82,0,0,1-6.06,4.87H86.74A5.83,5.83,0,0,1,80.67,492.05Zm262.52,1a12,12,0,0,1-8.84,4H253.91a20.58,20.58,0,0,0,.59-2.61l8.48-54.1h80.14l.93,9.85s0,.08,0,.11l3,31.59A14.93,14.93,0,0,1,343.19,493Z" transform="translate(-27.28)"/><path class="cls-1" d="M463,352.58a7.49,7.49,0,0,0-9.23,0c-5.09,4-21.71,18-21.71,31a26.33,26.33,0,0,0,52.65,0C484.73,370.55,468.11,356.56,463,352.58Zm-4.62,42.33a11.34,11.34,0,0,1-11.33-11.33c0-3.06,5.35-9.69,11.33-15.24,6,5.56,11.34,12.19,11.34,15.24A11.35,11.35,0,0,1,458.4,394.91Z" transform="translate(-27.28)"/></svg>