<svg height="512" viewBox="0 0 512 512" width="512" xmlns="http://www.w3.org/2000/svg"><g id="Growing_Time" data-name="Growing Time"><g id="Outline"><path d="m233.354 343.736c-33.114-8.846-70.6-9.439-97.354 11.311v-30.508c13.687 6.207 31.483 3.106 45.674-1.851 28.832-10.069 54.946-44.979 56.044-46.46a8 8 0 0 0 -4.364-12.492c-1.78-.476-43.949-11.537-72.782-1.468a86.944 86.944 0 0 0 -24.572 12.779v-26.247c11.047 2.731 24.211 0 35.04-3.78 24.366-8.511 47.212-35.808 48.173-36.965a8.005 8.005 0 0 0 -4.519-12.939c-26.5-5.552-55.746-5.048-78.694 9.544v-14.6c16.377-7.77 24.844-39.573-2.8-74.982a8 8 0 0 0 -12.69.1c-26.946 35.674-18.435 68.512-.512 75.451v16.1c-22.477-17.7-55.372-18.307-83.3-12.1a8 8 0 0 0 -4.482 12.835c18.022 22.32 44.357 42.4 72.971 42.394a35.558 35.558 0 0 0 14.813-2.883v28.639c-26.762-21.417-65.03-20.7-98.064-11.878a8 8 0 0 0 -4.364 12.492c21.775 29.388 57.653 57.8 93.4 50.917a36.584 36.584 0 0 0 9.028-2.939v31.408c-26.728-21.39-64.994-20.726-98.064-11.878a8 8 0 0 0 -4.364 12.492c1.1 1.481 27.212 36.391 56.044 46.46 14.458 5.05 32.65 8.157 46.384 1.518v44.14a80.184 80.184 0 0 0 -66.039 47.654h-13.961a8 8 0 0 0 0 16h176a8 8 0 0 0 0-16h-15.382a80.183 80.183 0 0 0 -64.618-47.513v-43.948c13.687 6.207 31.483 3.106 45.674-1.851 28.832-10.069 54.946-44.979 56.044-46.46a8 8 0 0 0 -4.364-12.492zm-67.506-66.363c14.782-5.162 35.4-3.475 50.828-.8-9.136 10.261-24.687 25.57-40.278 31.014-45.441 15.866-55.993-14.344-10.55-30.214zm-29.848-51.313c4.183-6.886 15.667-12.13 23.258-14.781 11.066-3.864 25.738-3.7 37.359-2.595-7.963 7.67-19.51 17.264-30.852 21.226-7.682 2.684-24.129 6.647-29.765 1.586zm-19.576 3.61c-1.383 3.962-12.152 6.778-30.871.24-11.513-4.021-23.2-14.028-31.109-21.886 11.085-1.222 26.458-1.782 37.97 2.24 18.719 6.536 25.393 15.445 24.01 19.406zm-37.532 77.913c-15.591-5.444-31.143-20.754-40.278-31.014 13.537-2.342 35.24-4.641 50.828.8 45.44 15.873 34.894 46.086-10.55 30.214zm0 80c-15.591-5.444-31.143-20.754-40.278-31.014 13.537-2.343 35.24-4.641 50.828.8 45.44 15.873 34.894 46.086-10.55 30.214zm40.225-229.7c-.058-7.207 3.928-16.242 7.9-23.3 4.083 6.993 8.214 15.963 8.271 23.169.193 24.048-15.975 24.467-16.171.134zm63.601 338.117h-110.857c24.647-42.607 86.214-42.6 110.857 0zm-6.318-108.417c-45.424 15.864-55.991-14.341-10.55-30.21 14.782-5.162 35.4-3.475 50.828-.8-9.138 10.257-24.689 25.566-40.278 31.01z"/><circle cx="8" cy="504" r="8"/><circle cx="248" cy="504" r="8"/><path d="m168.156 176.77a8 8 0 0 0 7.988-7.662c5.183-122.296 138.577-191.152 240.707-131.208a8 8 0 1 0 8.1-13.8c-114.638-67.28-259.207 12.546-264.794 144.331a8 8 0 0 0 7.999 8.339z"/><path d="m474.732 67.692a8 8 0 1 0 -12.605 9.856 158.379 158.379 0 0 1 33.873 98.452c0 131.056-148.958 205.131-253.364 129.938a8 8 0 0 0 -9.351 12.983c115.123 82.914 278.715.986 278.715-142.921a174.242 174.242 0 0 0 -37.268-108.308z"/><path d="m192.2 168.424a8 8 0 0 0 15.979.832 128 128 0 0 1 255.821 6.744c0 103.555-116.7 163.321-200.563 105.388a8 8 0 1 0 -9.094 13.164c94.376 65.199 225.657-2.06 225.657-118.552 0-79.4-64.6-144-144-144a143.9 143.9 0 0 0 -143.8 136.424z"/><path d="m328 153.376c-25.358 8.994-18.8 46.624 8 46.624a24.039 24.039 0 0 0 22.624-16h25.376a8 8 0 0 0 0-16h-25.376a24.119 24.119 0 0 0 -14.624-14.624v-49.376a8 8 0 0 0 -16 0zm8 14.624a8 8 0 1 1 -8 8 8.009 8.009 0 0 1 8-8z"/><circle cx="336" cy="72" r="8"/><circle cx="336" cy="280" r="8"/><circle cx="232" cy="176" r="8"/><circle cx="440" cy="176" r="8"/><circle cx="262.461" cy="102.461" r="8"/><path d="m403.882 255.2a8 8 0 1 0 0-11.314 8 8 0 0 0 0 11.314z"/><path d="m415.2 108.118a8 8 0 1 0 -11.314 0 8 8 0 0 0 11.314 0z"/><circle cx="448" cy="48" r="8"/><circle cx="262.461" cy="249.539" r="8"/></g></g></svg>