<svg id="Capa_1" data-name="Capa 1" xmlns="http://www.w3.org/2000/svg" viewBox="0 0 512 512.26"><defs><style>.cls-1{fill:#609e3b;}</style></defs><g id="Growing_Time" data-name="Growing Time"><g id="Outline"><path class="cls-1" d="M233.35,343.74c-33.11-8.85-70.6-9.44-97.35,11.31V324.54c13.69,6.21,31.48,3.1,45.67-1.85,28.84-10.07,55-45,56.05-46.46a8,8,0,0,0-4.37-12.49c-1.78-.48-43.95-11.54-72.78-1.47A86.91,86.91,0,0,0,136,275.05V248.8c11.05,2.73,24.21,0,35-3.78,24.37-8.51,47.21-35.81,48.17-37a8,8,0,0,0-4.52-12.94c-26.5-5.56-55.74-5.05-78.69,9.54v-14.6c16.38-7.77,24.84-39.57-2.8-75a8,8,0,0,0-12.69.1c-26.95,35.67-18.44,68.51-.51,75.45v16.1c-22.48-17.7-55.37-18.31-83.3-12.1a8,8,0,0,0-6.07,9.55,7.9,7.9,0,0,0,1.59,3.28c18,22.32,44.35,42.4,73,42.4A35.7,35.7,0,0,0,120,247v28.63c-26.76-21.41-65-20.7-98.06-11.87a8,8,0,0,0-4.37,12.49C39.35,305.62,75.22,334,111,327.15a37.14,37.14,0,0,0,9-2.94v31.4c-26.73-21.39-65-20.72-98.06-11.87a8,8,0,0,0-4.37,12.49c1.1,1.48,27.21,36.39,56.05,46.46,14.45,5.05,32.65,8.16,46.38,1.52v44.14A80.19,80.19,0,0,0,54,496H40a8,8,0,0,0,0,16H216a8,8,0,0,0,0-16H200.62A80.17,80.17,0,0,0,136,448.49V404.54c13.69,6.21,31.48,3.1,45.67-1.85,28.84-10.07,55-45,56.05-46.46a8,8,0,0,0-4.37-12.49Zm-67.5-66.37c14.78-5.16,35.4-3.47,50.83-.8-9.14,10.26-24.69,25.57-40.28,31-45.44,15.86-56-14.35-10.55-30.22ZM136,226.06c4.18-6.89,15.67-12.13,23.26-14.78,11.06-3.87,25.74-3.7,37.36-2.6-8,7.67-19.51,17.27-30.86,21.23-7.68,2.68-24.12,6.65-29.76,1.59Zm-19.58,3.61c-1.38,4-12.15,6.78-30.87.24-11.51-4-23.2-14-31.11-21.89,11.09-1.22,26.46-1.78,38,2.24,18.72,6.54,25.4,15.45,24,19.41ZM78.89,307.58c-15.59-5.44-31.14-20.75-40.28-31,13.54-2.34,35.24-4.64,50.83.8,45.44,15.87,34.9,46.08-10.55,30.21Zm0,80c-15.59-5.44-31.14-20.75-40.28-31,13.54-2.34,35.24-4.64,50.83.8,45.44,15.87,34.9,46.08-10.55,30.21Zm40.23-229.7c-.06-7.2,3.92-16.24,7.9-23.3,4.08,7,8.21,16,8.27,23.17.19,24.05-16,24.47-16.17.14ZM182.72,496H71.86C96.51,453.39,158.07,453.4,182.72,496ZM176.4,387.58c-45.42,15.87-56-14.34-10.55-30.21,14.78-5.16,35.4-3.47,50.83-.8-9.14,10.26-24.69,25.57-40.28,31Z" transform="translate(0 0.26)"/><circle class="cls-1" cx="8" cy="504.26" r="8"/><circle class="cls-1" cx="248" cy="504.26" r="8"/><path class="cls-1" d="M168.16,176.77a8,8,0,0,0,8-7.66C181.33,46.81,314.72-22,416.85,37.9A8,8,0,1,0,425,24.1h0C310.31-43.18,165.74,36.65,160.16,168.43a8,8,0,0,0,7.65,8.33Z" transform="translate(0 0.26)"/><path class="cls-1" d="M474.73,67.69a8,8,0,1,0-12.6,9.86A158.36,158.36,0,0,1,496,176c0,131.06-149,205.13-253.36,129.94a8,8,0,0,0-9.35,13C348.41,401.83,512,319.91,512,176A174.19,174.19,0,0,0,474.73,67.69Z" transform="translate(0 0.26)"/><path class="cls-1" d="M192.2,168.42a8,8,0,0,0,16,.84A128,128,0,0,1,464,176c0,103.55-116.7,163.32-200.56,105.39a8,8,0,1,0-9.17,13.11l.07.05C348.72,359.75,480,292.49,480,176c0-79.4-64.6-144-144-144A143.9,143.9,0,0,0,192.2,168.42Z" transform="translate(0 0.26)"/><path class="cls-1" d="M328,153.38c-25.36,9-18.8,46.62,8,46.62a24,24,0,0,0,22.62-16H384a8,8,0,0,0,0-16H358.62A24.12,24.12,0,0,0,344,153.38V104a8,8,0,0,0-16,0ZM336,168a8,8,0,1,1-8,8A8,8,0,0,1,336,168Z" transform="translate(0 0.26)"/><circle class="cls-1" cx="336" cy="72.26" r="8"/><circle class="cls-1" cx="336" cy="280.26" r="8"/><circle class="cls-1" cx="232" cy="176.26" r="8"/><circle class="cls-1" cx="440" cy="176.26" r="8"/><circle class="cls-1" cx="262.46" cy="102.73" r="8"/><path class="cls-1" d="M403.88,255.2a8,8,0,1,0,0-11.31,8,8,0,0,0,0,11.31Z" transform="translate(0 0.26)"/><path class="cls-1" d="M415.2,108.12a8,8,0,1,0-11.31,0,8,8,0,0,0,11.31,0Z" transform="translate(0 0.26)"/><circle class="cls-1" cx="448" cy="48.26" r="8"/><circle class="cls-1" cx="262.46" cy="249.8" r="8"/></g></g></svg>