<svg id="Capa_1" data-name="Capa 1" xmlns="http://www.w3.org/2000/svg" viewBox="0 0 512 503.46"><g id="Page-1"><g id="_014---Planting-Seeds" data-name="014---Planting-Seeds"><g id="Icons_copy" data-name="Icons copy"><path id="Shape" d="M477.87,174.93H456a33.42,33.42,0,0,0,4.78-17.06,34.14,34.14,0,0,0-34.13-34.14H261.72v-4.35A34.14,34.14,0,0,1,281.6,87.89l39.77-18.51A34.14,34.14,0,0,0,307.2,4.27a34.8,34.8,0,0,0-14.42,3.15L169.05,65.11a135.86,135.86,0,0,0-48.73,41.56,59.15,59.15,0,0,1-35,24.06A17.06,17.06,0,0,0,68.27,115.2H17.07A17.07,17.07,0,0,0,0,132.27V302.93A17.07,17.07,0,0,0,17.07,320h51.2a17.06,17.06,0,0,0,16.21-11.95A411.58,411.58,0,0,0,172,341.5,29.78,29.78,0,1,0,230.4,350a32.89,32.89,0,0,0,0-4.44H375.47a34,34,0,0,0,29.44-51.2H435.2a34,34,0,0,0,29.44-51.2h13.23a34.14,34.14,0,0,0,0-68.27Zm-409.6,128H17.07V132.27h51.2Zm132.26,59.74a12.8,12.8,0,1,1,12.8-12.8,12.8,12.8,0,0,1-12.8,12.8ZM477.87,226.13H341.33a8.54,8.54,0,0,0,0,17.07H435.2a17.07,17.07,0,1,1,0,34.13H341.33a8.54,8.54,0,0,0,0,17.07h34.14a17.07,17.07,0,0,1,0,34.13H221.35a29.43,29.43,0,0,0-38.82-2.3,399.47,399.47,0,0,1-97.2-37V148.14a75.4,75.4,0,0,0,49-32.09,118.93,118.93,0,0,1,41.9-35L300,23.38a17.59,17.59,0,0,1,22.7,8.53,17.08,17.08,0,0,1-8.54,22.7L274.69,72.53a51.21,51.21,0,0,0-30,47.7,66.38,66.38,0,0,1-.43,11.1,59.71,59.71,0,0,1-19.88,37,8.73,8.73,0,0,0,11.69,13,76.73,76.73,0,0,0,23.72-40.53H426.67a17.07,17.07,0,0,1,0,34.13H341.33a8.54,8.54,0,0,0,0,17.07H477.87a17.07,17.07,0,0,1,0,34.13Z" transform="translate(0 -4.27)"/><path id="Shape-2" data-name="Shape" d="M503.47,405.33h-133a42.67,42.67,0,0,0-40.87,30.72,76.8,76.8,0,0,1-147.12,0,42.67,42.67,0,0,0-40.87-30.72H8.53a8.54,8.54,0,0,0,0,17.07h133A25.59,25.59,0,0,1,166.14,441a93.87,93.87,0,0,0,179.72,0,25.59,25.59,0,0,1,24.57-18.6h133a8.54,8.54,0,0,0,0-17.07Z" transform="translate(0 -4.27)"/><path id="Shape-3" data-name="Shape" d="M298.67,418.13A29.87,29.87,0,1,0,268.8,448,29.87,29.87,0,0,0,298.67,418.13Zm-42.67,0a12.8,12.8,0,1,1,12.8,12.8A12.8,12.8,0,0,1,256,418.13Z" transform="translate(0 -4.27)"/><path id="Shape-4" data-name="Shape" d="M268.8,251.73a29.87,29.87,0,1,0,29.87,29.87A29.88,29.88,0,0,0,268.8,251.73Zm0,42.67a12.8,12.8,0,1,1,12.8-12.8A12.8,12.8,0,0,1,268.8,294.4Z" transform="translate(0 -4.27)"/><path id="Shape-5" data-name="Shape" d="M200.53,200.53A29.87,29.87,0,1,0,230.4,230.4,29.87,29.87,0,0,0,200.53,200.53Zm0,42.67a12.8,12.8,0,1,1,12.8-12.8,12.8,12.8,0,0,1-12.8,12.8Z" transform="translate(0 -4.27)"/></g></g></g></svg>