<svg height="512" viewBox="0 0 60 59" width="512" xmlns="http://www.w3.org/2000/svg"><g id="Page-1" fill="none" fill-rule="evenodd"><g id="014---Planting-Seeds" fill-rule="nonzero"><g id="Icons" transform="translate(1)"><rect id="Rectangle-path" fill="#9d27b0" height="22" rx="1" width="8" y="14"/><path id="Shape" d="m7 14h-3c.55228475 0 1 .4477153 1 1v20c0 .5522847-.44771525 1-1 1h3c.55228475 0 1-.4477153 1-1v-20c0-.5522847-.44771525-1-1-1z" fill="#6a1b9a"/><path id="Shape" d="m58 24c0 1.6568542-1.3431458 3-3 3h-5c1.6568542 0 3 1.3431458 3 3s-1.3431458 3-3 3h-7c1.6568542 0 3 1.3431458 3 3s-1.3431458 3-3 3h-18.5c-.4447401-.5918729-1.1289391-.956186-1.8682745-.9947936-.7393353-.0386076-1.457758.2524615-1.9617255.7947936-5.75-.95-12.67-4.8-12.67-4.8v-18c2.3989328-.1782492 4.5823375-1.4506725 5.92-3.45 1.3868226-1.9138205 3.2062585-3.47284754 5.31-4.55l14.5-6.76c1.5022145-.70140163 3.2885984-.05221452 3.99 1.45s.0522145 3.28859837-1.45 3.99l-4.66 2.21c-1.8179079.82164626-2.9734211 2.6453134-2.94 4.64.0212082.4908156.0011376.9825454-.06 1.47h20.39c1.6568542 0 3 1.3431458 3 3s-1.3431458 3-3 3h6c1.6568542 0 3 1.3431458 3 3z" fill="#ffe0b2"/><g fill="#dfc49c"><path id="Shape" d="m34.72 2.73c.3405051.72238071.3789305 1.5507129.1067648 2.30151476-.2721656.75080185-.8324568 1.36209926-1.5567648 1.69848524l-4.66 2.16c-1.8179079.82164626-2.9734211 2.6453134-2.94 4.64.0212082.4908156.0011376.9825454-.06 1.47h3c.0611376-.4874546.0812082-.9791844.06-1.47-.0334211-1.9946866 1.1220921-3.81835374 2.94-4.64l4.66-2.17c1.5022145-.70140163 2.1514016-2.48778548 1.45-3.99s-2.4877855-2.15140163-3.99-1.45l-.25.12c.5443555.30005509.9787593.76598824 1.24 1.33z"/><path id="Shape" d="m49 18c0 1.6568542-1.3431458 3-3 3h3c1.6568542 0 3-1.3431458 3-3s-1.3431458-3-3-3h-3c1.6568542 0 3 1.3431458 3 3z"/><path id="Shape" d="m57.12 21.88c-.5620694-.5627699-1.3246186-.8792998-2.12-.88h-3c1.6568542 0 3 1.3431458 3 3s-1.3431458 3-3 3h3c1.2125666-.0010665 2.305263-.7319802 2.7691479-1.8523059.4638849-1.1203258.2077333-2.4097468-.6491479-3.2676941z"/><path id="Shape" d="m43 33h-3c1.6568542 0 3 1.3431458 3 3s-1.3431458 3-3 3h3c1.6568542 0 3-1.3431458 3-3s-1.3431458-3-3-3z"/><path id="Shape" d="m50 27h-3c1.6568542 0 3 1.3431458 3 3s-1.3431458 3-3 3h3c1.6568542 0 3-1.3431458 3-3s-1.3431458-3-3-3z"/></g><circle id="Oval" cx="30.5" cy="48.5" fill="#ff9801" r="2.5"/><path id="Shape" d="m25 40.5c0 1.3807119-1.1192881 2.5-2.5 2.5s-2.5-1.1192881-2.5-2.5c-.004246-.631864.2357998-1.2409354.67-1.7.6996293-.7516901 1.787767-.9990981 2.7436342-.6238154.9558672.3752828 1.585027 1.2969184 1.5863658 2.3238154z" fill="#ff9801"/><circle id="Oval" cx="30.5" cy="32.5" fill="#ff9801" r="2.5"/><circle id="Oval" cx="22.5" cy="26.5" fill="#ff9801" r="2.5"/></g><g id="Icons_copy" fill="#000"><path id="Shape" d="m56 20h-2.56c.3635516-.6039929.5570448-1.2950401.56-2 0-2.209139-1.790861-4-4-4h-19.33c0-.17 0-.34 0-.51-.0218103-1.5826592.8916685-3.0293273 2.33-3.69l4.66-2.17c1.7006116-.78709542 2.6268438-2.64931584 2.2284675-4.48040708-.3983764-1.83109125-2.0145651-3.14017681-3.8884675-3.14959292-.5833055.00110798-1.1595924.12727731-1.69.37l-14.5 6.76c-2.264011 1.14543379-4.2216657 2.81509728-5.71 4.87-.9704052 1.4151812-2.4313366 2.4200169-4.1 2.82-.09340596-1.0337275-.96206961-1.8242114-2-1.82h-6c-1.1045695 0-2 .8954305-2 2v20c0 1.1045695.8954305 2 2 2h6c.87052576-.0034313 1.63884701-.5695628 1.9-1.4 3.2597889 1.6926122 6.7020483 3.0077834 10.26 3.92-.3821165 1.308457.0325286 2.7196359 1.0617239 3.6134086s2.4845593 1.1065452 3.7265472.5448168 2.0432691-1.7951403 2.0517289-3.1582254c.0112786-.1731499.0112786-.3468501 0-.52h17c2.209139 0 4-1.790861 4-4-.004283-.7034308-.1939951-1.3932927-.55-2h3.55c2.209139 0 4-1.790861 4-4-.004283-.7034308-.1939951-1.3932927-.55-2h1.55c2.209139 0 4-1.790861 4-4s-1.790861-4-4-4zm-48 15h-6v-20h6zm15.5 7c-.6066934 0-1.1536478-.3654633-1.3858193-.9259749-.2321715-.5605115-.1038379-1.2056883.3251591-1.6346853s1.0741738-.5573306 1.6346853-.3251591c.5605116.2321715.9259749.7791259.9259749 1.3858193 0 .8284271-.6715729 1.5-1.5 1.5zm32.5-16h-16c-.5522847 0-1 .4477153-1 1s.4477153 1 1 1h11c1.1045695 0 2 .8954305 2 2s-.8954305 2-2 2h-11c-.5522847 0-1 .4477153-1 1s.4477153 1 1 1h4c1.1045695 0 2 .8954305 2 2s-.8954305 2-2 2h-18.06c-1.2328318-1.221699-3.181336-1.3373245-4.55-.27-3.9691114-.9408955-7.7982127-2.3965591-11.39-4.33v-16.54c2.3415624-.4293204 4.4109982-1.7849089 5.74-3.76 1.2967372-1.7287808 2.9776549-3.13239845 4.91-4.1l14.5-6.76c1.0114635-.42948433 2.1819685.01055515 2.66 1 .222744.48500496.242398 1.03891984.0545889 1.53849208-.1878091.49957225-.5675007.90335718-1.0545889 1.12150792l-4.62 2.1c-2.1858056.99155046-3.5703727 3.1903373-3.52 5.59.0195167.4339698.002792.8688113-.05 1.3-.2251939 1.6811822-1.0531637 3.2234092-2.33 4.34-.337143.2768313-.4559304.7402658-.2935225 1.1451418s.5685296.6577538 1.0035225.6248582c.2430724-.0003498.4776958-.0892223.66-.25 1.3999328-1.2541978 2.3720682-2.9152206 2.78-4.75h19.56c1.1045695 0 2 .8954305 2 2s-.8954305 2-2 2h-10c-.5522847 0-1 .4477153-1 1s.4477153 1 1 1h16c1.1045695 0 2 .8954305 2 2s-.8954305 2-2 2z"/><path id="Shape" d="m59 47h-15.59c-2.2185175.0044383-4.1688183 1.4702177-4.79 3.6-1.1425376 3.8061248-4.6460878 6.4124143-8.62 6.4124143s-7.4774624-2.6062895-8.62-6.4124143c-.6211817-2.1297823-2.5714825-3.5955617-4.79-3.6h-15.59c-.55228475 0-1 .4477153-1 1s.44771525 1 1 1h15.59c1.3389104.0025706 2.5140329.892073 2.88 2.18 1.4025201 4.6426561 5.6801218 7.8189467 10.53 7.8189467s9.1274799-3.1762906 10.53-7.8189467c.3659671-1.287927 1.5410896-2.1774294 2.88-2.18h15.59c.5522847 0 1-.4477153 1-1s-.4477153-1-1-1z"/><path id="Shape" d="m35 48.5c0-1.9329966-1.5670034-3.5-3.5-3.5s-3.5 1.5670034-3.5 3.5 1.5670034 3.5 3.5 3.5 3.5-1.5670034 3.5-3.5zm-5 0c0-.8284271.6715729-1.5 1.5-1.5s1.5.6715729 1.5 1.5-.6715729 1.5-1.5 1.5-1.5-.6715729-1.5-1.5z"/><path id="Shape" d="m31.5 29c-1.9329966 0-3.5 1.5670034-3.5 3.5s1.5670034 3.5 3.5 3.5 3.5-1.5670034 3.5-3.5-1.5670034-3.5-3.5-3.5zm0 5c-.8284271 0-1.5-.6715729-1.5-1.5s.6715729-1.5 1.5-1.5 1.5.6715729 1.5 1.5-.6715729 1.5-1.5 1.5z"/><path id="Shape" d="m23.5 23c-1.9329966 0-3.5 1.5670034-3.5 3.5s1.5670034 3.5 3.5 3.5 3.5-1.5670034 3.5-3.5-1.5670034-3.5-3.5-3.5zm0 5c-.6066934 0-1.1536478-.3654633-1.3858193-.9259749-.2321715-.5605115-.1038379-1.2056883.3251591-1.6346853s1.0741738-.5573306 1.6346853-.3251591c.5605116.2321715.9259749.7791259.9259749 1.3858193 0 .8284271-.6715729 1.5-1.5 1.5z"/></g></g></g></svg>