<svg id="Capa_1" data-name="Capa 1" xmlns="http://www.w3.org/2000/svg" viewBox="0 0 396.92 399.08"><defs><style>.cls-1{fill:#609e3b;}</style></defs><path class="cls-1" d="M371.84,100a7.24,7.24,0,0,0-9.9-2.62l-35.36,20.44a7.24,7.24,0,1,0,7.28,12.52l35.36-20.44A7.24,7.24,0,0,0,371.84,100Z" transform="translate(-1.08 0)"/><path class="cls-1" d="M369.22,289.18l-35.36-20.44a7.24,7.24,0,1,0-7.28,12.52l35.36,20.44a7.24,7.24,0,1,0,7.28-12.52Z" transform="translate(-1.08 0)"/><path class="cls-1" d="M200.1,342.62a7.28,7.28,0,0,0-7.8,6.72,6.49,6.49,0,0,0,0,1.08v40.84a7.28,7.28,0,1,0,14.52,1.08,6.49,6.49,0,0,0,0-1.08V350.42A7.28,7.28,0,0,0,200.1,342.62Z" transform="translate(-1.08 0)"/><path class="cls-1" d="M72.5,117.86,37.14,97.42a7.24,7.24,0,0,0-7.28,12.52l35.36,20.44a7.24,7.24,0,1,0,7.28-12.52Z" transform="translate(-1.08 0)"/><path class="cls-1" d="M200.1,0a7.28,7.28,0,0,0-7.8,6.72,6.49,6.49,0,0,0,0,1.08V48.66a7.26,7.26,0,0,0,14.52,0V7.82A7.28,7.28,0,0,0,200.1,0Z" transform="translate(-1.08 0)"/><path class="cls-1" d="M130.34,65.22l-20.4-35.36a7.24,7.24,0,0,0-12.52,7.28l20.4,35.36a7.24,7.24,0,1,0,12.52-7.28Z" transform="translate(-1.08 0)"/><path class="cls-1" d="M200.62,134.94a6.49,6.49,0,0,0-1.08,0,64.6,64.6,0,0,0-64.6,64.6,7.26,7.26,0,1,0,14.52,0,50,50,0,0,1,50-50.08h.08a7.28,7.28,0,0,0,1.08-14.52Z" transform="translate(-1.08 0)"/><path class="cls-1" d="M398,199a7.28,7.28,0,0,0-6.72-6.72H350.42a7.28,7.28,0,0,0-1.08,14.52,6.49,6.49,0,0,0,1.08,0h40.84A7.28,7.28,0,0,0,398,199Z" transform="translate(-1.08 0)"/><path class="cls-1" d="M49.74,192.3a6.49,6.49,0,0,0-1.08,0H7.82a7.28,7.28,0,0,0,0,14.52H48.66a7.28,7.28,0,1,0,1.08-14.52Z" transform="translate(-1.08 0)"/><path class="cls-1" d="M199.57,92.7A106.84,106.84,0,1,0,306.39,199.55,106.84,106.84,0,0,0,199.57,92.7Zm65.25,172.24A92.36,92.36,0,0,1,134.26,134.26v.12A92.32,92.32,0,0,1,264.82,264.94Z" transform="translate(-1.08 0)"/><path class="cls-1" d="M301.68,362l0,0-20.44-35.36a7.24,7.24,0,0,0-12.52,7.28l20.44,35.36A7.24,7.24,0,0,0,301.68,362Z" transform="translate(-1.08 0)"/><path class="cls-1" d="M299.28,27.24a7.24,7.24,0,0,0-9.9,2.62L268.94,65.22a7.24,7.24,0,0,0,2.58,9.91h0a7.24,7.24,0,0,0,9.9-2.61l0,0L301.9,37.14A7.24,7.24,0,0,0,299.28,27.24Z" transform="translate(-1.08 0)"/><path class="cls-1" d="M127.76,324a7.24,7.24,0,0,0-9.9,2.62L97.42,361.94a7.24,7.24,0,0,0,12.52,7.28l20.44-35.36A7.24,7.24,0,0,0,127.76,324Z" transform="translate(-1.08 0)"/><path class="cls-1" d="M75.12,271.32a7.24,7.24,0,0,0-9.9-2.62L29.86,289.14a7.24,7.24,0,1,0,7.28,12.52L72.5,281.22A7.24,7.24,0,0,0,75.12,271.32Z" transform="translate(-1.08 0)"/></svg>